:SAMPLES-PER-SECOND 30
:FRAME-RANGE 1-2045
:FULLY-SPECIFIED
:DEGREES
128
root  23.7267 35.6981 75.0913 2.98055 -8.58256 7.6799
RightUpLeg  -15.3933 -0.71963 5.2571
RightLeg  62.7015 8.4461 16.7695
RightFoot  -12.1608 -0.0609461 3.00693
RightToes  -5.28216e-011 1.2921e-014 -6.02303e-014
Spine  3.97839 3.57481 -10.5897
Spine1  4.56187 3.68824 -1.73993
HEad  14.9725 -44.1837 15.6515
LeftShoulder1  -0.0272311 3.4185 -17.2325
LeftArm  -8.49988 17.7978 -29.8455
LeftForeArm  9.30156 -67.6512 -28.3137
LeftHand  0.264335 0.699268 -6.70846
RightShoulder  1.71397 2.1425 25.4003
RightArm  5.41951 -5.16714 58.7754
RightForeArm  23.3597 58.5207 16.443
RightHand  -0.109964 -3.94502 -7.54895
LeftUpLeg  -35.0232 -17.2189 7.53258
LeftLeg  28.1062 -7.19393 -3.80471
LeftFoot  -5.29139 0.965569 -17.5566
LeftToes  9.43379e-011 5.24309e-011 -4.66411e-011
129
root  23.3935 35.0941 75.7775 0.998303 -11.5262 7.69946
RightUpLeg  -19.6639 -3.56639 2.76935
RightLeg  72.9116 6.23526 21.117
RightFoot  -9.11879 -0.392287 16.8929
RightToes  -5.28216e-011 1.2921e-014 -6.02303e-014
Spine  5.86255 2.78087 -11.4744
Spine1  5.44621 2.56422 -1.91572
HEad  12.7323 -48.7784 17.6895
LeftShoulder1  0.262943 2.16835 -16.6596
LeftArm  -8.22432 17.2905 -28.7752
LeftForeArm  6.25811 -65.7598 -25.7696
LeftHand  0.320029 0.0782043 -7.05935
RightShoulder  1.66626 1.90299 25.9485
RightArm  5.34187 -4.27175 59.8665
RightForeArm  24.3023 58.8227 16.5667
RightHand  -0.0875434 -4.36773 -7.94905
LeftUpLeg  -34.7271 -13.9306 6.71231
LeftLeg  35.7325 -7.70585 -5.54042
LeftFoot  -8.78185 0.358893 -13.6658
LeftToes  9.43379e-011 5.24309e-011 -4.66411e-011
130
root  23.0105 34.8085 76.5553 -0.859135 -14.6663 8.1062
RightUpLeg  -23.5556 -7.10575 0.289755
RightLeg  79.715 2.84664 17.1546
RightFoot  -12.0003 -0.00544354 13.2314
RightToes  -5.28216e-011 1.2921e-014 -6.02303e-014
Spine  7.07744 1.98783 -12.2144
Spine1  5.8463 1.4235 -1.72634
HEad  11.983 -51.7036 18.5917
LeftShoulder1  0.382465 1.63877 -16.4605
LeftArm  -7.84198 16.341 -28.5439
LeftForeArm  3.98607 -63.5514 -23.2005
LeftHand  0.347557 -0.39782 -6.97148
RightShoulder  1.70632 1.89381 26.813
RightArm  5.07656 -3.20853 60.5372
RightForeArm  24.4695 57.7385 15.7788
RightHand  -0.110877 -4.06574 -8.31922
LeftUpLeg  -32.5793 -11.5633 6.05533
LeftLeg  39.6987 -7.16623 -5.93339
LeftFoot  -12.1242 -0.0127861 -12.4278
LeftToes  9.43379e-011 5.24309e-011 -4.66411e-011
131
root  22.5445 34.7545 77.3823 -1.78469 -18.0413 9.36447
RightUpLeg  -28.4186 -10.7187 -2.75592
RightLeg  82.7168 1.34158 11.3635
RightFoot  -14.483 0.155157 9.23079
RightToes  -5.28216e-011 1.2921e-014 -6.02303e-014
Spine  6.3343 0.977187 -13.2887
Spine1  6.50842 0.378761 -1.59461
HEad  13.4942 -53.1709 17.3448
LeftShoulder1  0.454233 1.35003 -16.766
LeftArm  -7.8762 15.7298 -28.6921
LeftForeArm  2.96901 -61.624 -21.2337
LeftHand  0.385372 -0.93367 -7.01449
RightShoulder  1.72877 1.84258 27.6048
RightArm  4.43209 -1.91929 61.5106
RightForeArm  23.573 55.3422 14.3355
RightHand  -0.14419 -3.62934 -8.58827
LeftUpLeg  -30.1979 -9.5551 5.03839
LeftLeg  40.993 -6.30509 -5.42554
LeftFoot  -14.6899 -0.270379 -12.2135
LeftToes  9.43379e-011 5.24309e-011 -4.66411e-011
132
root  21.8865 34.963 78.1536 -2.51033 -21.8713 10.0132
RightUpLeg  -32.337 -13.6809 -4.36912
RightLeg  80.7312 1.09303 6.40775
RightFoot  -15.768 0.17413 7.26687
RightToes  -5.28216e-011 1.2921e-014 -6.02303e-014
Spine  6.26141 0.158993 -13.4809
Spine1  5.91085 -0.394355 -1.67661
HEad  15.4609 -53.7246 16.124
LeftShoulder1  0.51998 1.09918 -17.134
LeftArm  -7.9608 16.1199 -29.1454
LeftForeArm  2.60505 -60.4332 -20.136
LeftHand  0.559433 -2.15923 -8.43472
RightShoulder  1.73294 1.80575 27.9391
RightArm  2.78139 -1.36202 62.385
RightForeArm  23.8808 53.79 13.425
RightHand  -0.161512 -3.34484 -8.44078
LeftUpLeg  -26.5158 -6.55377 4.92601
LeftLeg  39.9148 -5.99559 -4.93745
LeftFoot  -16.4033 -0.448035 -12.3135
LeftToes  9.43379e-011 5.24309e-011 -4.66411e-011
133
root  21.0378 35.3244 78.875 -2.44455 -24.0762 10.8071
RightUpLeg  -35.5165 -18.4986 -5.03167
RightLeg  74.7128 0.0811002 -0.768324
RightFoot  -17.9363 0.278799 6.94439
RightToes  -5.28216e-011 1.2921e-014 -6.02303e-014
Spine  5.71188 -1.00238 -14.9886
Spine1  5.18248 -1.91361 0.491838
HEad  15.3704 -54.7148 16.3367
LeftShoulder1  0.601472 0.787654 -17.4823
LeftArm  -7.89679 17.2899 -29.7828
LeftForeArm  3.06917 -60.6141 -20.2549
LeftHand  0.440489 -1.57472 -7.22208
RightShoulder  1.5898 1.41779 27.6688
RightArm  0.129378 -1.75489 62.9489
RightForeArm  26.0171 54.6129 13.6906
RightHand  -0.113747 -3.67879 -6.67116
LeftUpLeg  -23.0821 -4.33408 4.85014
LeftLeg  36.7584 -6.17112 -4.52954
LeftFoot  -16.6636 -0.495635 -12.7612
LeftToes  9.43379e-011 5.24309e-011 -4.66411e-011
134
root  20.0367 35.7769 79.5576 -1.73805 -25.5113 11.5785
RightUpLeg  -38.2555 -23.7735 -4.47287
RightLeg  66.5947 -3.54258 -9.58403
RightFoot  -20.0234 0.270439 5.34815
RightToes  -5.28216e-011 1.2921e-014 -6.02303e-014
Spine  4.37187 -2.27614 -17.0739
Spine1  5.11755 -3.73423 4.09533
HEad  13.5159 -56.2396 17.5648
LeftShoulder1  0.716016 0.339335 -17.7558
LeftArm  -7.96086 19.102 -30.8176
LeftForeArm  4.89221 -61.9437 -21.3501
LeftHand  0.429667 -1.75615 -6.84483
RightShoulder  1.41376 0.986156 26.9025
RightArm  -2.11401 -2.17463 62.7041
RightForeArm  28.1614 56.7506 14.7671
RightHand  -0.072164 -4.09241 -4.78321
LeftUpLeg  -19.6417 -2.77317 4.96876
LeftLeg  31.8492 -6.41062 -3.903
LeftFoot  -15.8114 -0.428808 -13.3553
LeftToes  9.43379e-011 5.24309e-011 -4.66411e-011
